PathFileType	4	(X/Y/Z)	E:\Qualisys_Data\Carbon_Farble_Plate\Data\Amateur_Runner\S14\T2\S14T2V23_c3d.trc
DataRate	CameraRate	NumFrames	NumMarkers	Units	OrigDataRate	OrigDataStartFrame	OrigNumFrames
200.000000	200.000000	4	39	mm	200.000000	288	330
Frame#	Time	LSHO			RSHO			LICST			RICST			LASIS			LHEEL			RASIS			LTROC			RTROC			SACR			LTH1			LSK4			LTH2			LTH3			RHM5			LSK2			LTH4			RTH1			LTOE			RTH2			RTH3			RTH4			LLEP			RLEP			LSK1			LSK3			RSK1			LHM5			RSK2			LFT1			RSK3			RSK4			LLME			RLME			RTOE			RHEEL			RFT1			RFT2			LFT2			
		X1	Y1	Z1	X2	Y2	Z2	X3	Y3	Z3	X4	Y4	Z4	X5	Y5	Z5	X6	Y6	Z6	X7	Y7	Z7	X8	Y8	Z8	X9	Y9	Z9	X10	Y10	Z10	X11	Y11	Z11	X12	Y12	Z12	X13	Y13	Z13	X14	Y14	Z14	X15	Y15	Z15	X16	Y16	Z16	X17	Y17	Z17	X18	Y18	Z18	X19	Y19	Z19	X20	Y20	Z20	X21	Y21	Z21	X22	Y22	Z22	X23	Y23	Z23	X24	Y24	Z24	X25	Y25	Z25	X26	Y26	Z26	X27	Y27	Z27	X28	Y28	Z28	X29	Y29	Z29	X30	Y30	Z30	X31	Y31	Z31	X32	Y32	Z32	X33	Y33	Z33	X34	Y34	Z34	X35	Y35	Z35	X36	Y36	Z36	X37	Y37	Z37	X38	Y38	Z38	X39	Y39	Z39	

289	1.44	2087.3896484375	1441.609741210938	-599.5758056640625	2054.800048828125	1437.289428710938	-304.1719360351562	2074.28173828125	988.6456909179688	-581.3895263671875	2105.655029296875	1002.096557617188	-304.8614196777344	2120.99658203125	943.392822265625	-559.7617797851562	1693.390258789062	248.1376342773438	-482.1181030273438	2135.59375	963.8511352539062	-326.2883911132812	1984.04345703125	868.0833740234375	-593.6155395507812	2027.1435546875	867.2891845703125	-259.8331604003906	1952.415405273438	980.6959228515624	-441.3147277832031	2050.439208984375	638.9937744140625	-612.9390258789062	1835.345825195312	369.8709411621094	-566.544921875	1976.207641601562	638.1979370117188	-587.3373413085938	2059.48095703125	540.6294555664062	-598.9002075195312	2286.64599609375	92.20502471923828	-297.0165405273438	1905.399169921875	437.1062622070312	-588.937744140625	1983.002319335938	540.2391967773438	-576.638427734375	2253.840087890625	728.117919921875	-290.7574768066406	1816.391357421875	31.63203048706055	-514.0560913085938	2187.9697265625	690.237060546875	-277.9311828613281	2303.5048828125	645.7526245117188	-321.5862426757812	2234.769775390625	602.9782104492188	-301.9742126464844	2002.46435546875	476.3799133300781	-593.6808471679688	2287.089111328125	555.5549926757812	-309.1064453125	1962.5087890625	377.4845275878906	-591.672607421875	1888.736450195312	308.6771545410156	-574.6671752929688	2288.74853515625	431.6148071289062	-306.1929931640625	1751.763427734375	66.37458038330078	-570.4619140625	2205.16455078125	448.0640869140625	-295.4216613769531	1678.257080078125	225.9702453613281	-455.603515625	2261.059326171875	331.8822021484375	-315.3343811035156	2185.97802734375	353.5903625488281	-304.9614868164062	1736.89599609375	214.7581787109375	-545.3171997070312	2175.673583984375	175.7062377929688	-322.1522521972656	2363.978759765625	90.23039245605467	-361.9844055175781	2111.013427734375	159.1604614257812	-373.2399597167969	2119.2802734375	124.4216003417969	-401.1817626953125	2109.709716796875	132.6375427246094	-348.4785766601562	1662.911254882812	226.9664916992188	-508.7180786132812
290	1.445	2106.182373046875	1443.97216796875	-597.98388671875	2071.12353515625	1439.3173828125	-303.6536254882812	2093.94921875	990.8932495117188	-581.41845703125	2123.67919921875	1005.380554199219	-304.5971069335938	2140.48095703125	945.5508422851562	-559.5610961914062	1709.017944335938	255.5778656005859	-485.1662902832031	2153.630126953125	966.9194946289062	-325.6358642578125	2003.22900390625	870.5123291015625	-593.8704833984375	2045.578002929688	870.03662109375	-260.5103759765625	1971.57373046875	982.6040649414062	-441.98291015625	2067.03955078125	641.3373413085938	-613.3489379882812	1849.037963867188	374.4977416992188	-568.602294921875	1992.480346679688	641.2288208007812	-588.4957885742188	2075.064208984375	542.9020385742188	-600.5325317382812	2325.953125	92.86614227294922	-298.7354736328125	1919.91943359375	441.024169921875	-589.8143310546875	1998.96826171875	542.8900146484375	-577.8377685546875	2271.87939453125	730.063720703125	-291.4257507324219	1820.371704101562	30.19831085205078	-514.3854370117188	2205.845458984375	692.318115234375	-279.0758056640625	2321.6171875	647.631103515625	-321.9372253417969	2252.6015625	604.6826782226562	-302.8440856933594	2017.087524414062	479.5097045898438	-594.6859130859375	2305.302001953125	556.8676147460938	-309.4287109375	1976.118896484375	381.2262573242188	-593.8352661132812	1901.7822265625	312.8154602050781	-577.228759765625	2311.84228515625	432.4492492675781	-306.2001037597656	1758.121704101562	69.45056915283203	-571.8695068359375	2227.59228515625	445.1553039550781	-295.3546447753906	1692.948608398438	234.5533142089844	-458.934326171875	2288.584716796875	331.6675109863281	-315.609619140625	2212.48486328125	349.9046936035156	-305.4607849121094	1750.309936523438	220.2127380371094	-548.6410522460938	2210.464111328125	171.6946105957031	-322.2823791503906	2403.137451171875	95.85616302490234	-363.0671997070312	2147.302978515625	151.6995391845703	-373.9748840332031	2157.55810546875	117.7874374389648	-402.8399353027344	2146.976318359375	124.7244262695312	-347.7166748046875	1677.344848632812	236.2224884033203	-512.8380737304688
291	1.45	2124.774169921875	1446.135375976562	-596.8215942382812	2087.2958984375	1441.332885742188	-303.2864685058594	2113.060302734375	992.9715576171876	-581.1348876953125	2141.1484375	1007.48486328125	-303.4878540039062	2159.617431640625	947.605224609375	-559.3209838867188	1724.732666015625	263.0569763183594	-489.2061767578125	2172.376220703125	969.659423828125	-325.1865844726562	2021.964233398438	872.7896118164062	-594.4400634765625	2064.37353515625	872.2369995117188	-261.170166015625	1990.34912109375	983.6611938476562	-442.6191101074219	2083.887451171875	643.7354736328125	-615.0802612304688	1863.109130859375	378.7955932617188	-570.4378662109375	2009.484130859375	644.0135498046875	-588.8018798828125	2091.082275390625	545.1464233398438	-601.5533447265625	2365.054443359375	93.90570831298828	-300.1970520019531	1934.702270507812	444.7156372070312	-591.6171264648438	2014.4130859375	545.7821044921875	-578.96337890625	2289.559326171875	731.2063598632812	-291.6693420410156	1824.366088867188	28.55616569519043	-514.7581176757812	2223.275146484375	693.3629760742188	-280.0523376464844	2339.38671875	648.834228515625	-321.9463500976562	2270.336669921875	606.0164184570312	-303.0348815917969	2033.030517578125	482.5422058105469	-596.1681518554688	2323.48193359375	557.3432006835938	-310.0661926269531	1990.536987304688	384.6985168457031	-594.8494873046875	1915.397827148438	316.8556213378906	-579.8467407226562	2334.64013671875	433.1556091308594	-306.0793151855469	1764.7744140625	72.59911346435547	-572.1331787109375	2250.00439453125	441.9950561523438	-295.5601806640625	1707.286987304688	243.0371704101562	-462.4700927734375	2315.974609375	331.3926696777344	-315.5550231933594	2239.240234375	346.7025756835938	-305.4124145507812	1764.126831054688	225.1880187988281	-551.9462280273438	2246.1474609375	166.9217681884766	-324.5137939453125	2442.051025390625	100.7678146362305	-364.3031921386719	2184.382080078125	143.971435546875	-376.7039489746094	2195.676025390625	111.7004013061523	-404.885986328125	2184.499267578125	117.07958984375	-349.5226440429688	1692.206909179688	244.5687408447266	-516.3819580078125
292	1.455	2143.1845703125	1448.07421875	-595.47216796875	2103.31494140625	1442.833251953125	-302.9923400878906	2132.330810546875	995.1310424804688	-581.1836547851562	2159.367431640625	1009.434509277344	-302.8436584472656	2178.809326171875	949.713623046875	-559.15185546875	1740.446044921875	269.6326599121094	-492.7109985351562	2190.810546875	971.824951171875	-324.8639526367188	2041.04833984375	874.9877319335938	-594.7466430664062	2083.08837890625	874.018310546875	-261.7523498535156	2009.343872070312	984.9238891601562	-443.5792236328125	2101.004638671875	645.8641357421875	-615.5048828125	1877.978149414062	383.0885925292969	-572.58642578125	2026.783203125	646.7288208007812	-589.9465942382812	2107.172119140625	547.499267578125	-602.5120239257812	2403.242919921875	95.42990112304688	-301.5104064941406	1950.215087890625	448.2186889648438	-592.837890625	2030.926147460938	548.8470458984375	-579.7291259765625	2307.104248046875	731.967529296875	-292.3194580078125	1828.6025390625	27.03979301452637	-515.13037109375	2241.062744140625	694.6112670898438	-280.8893432617188	2356.935302734375	649.5779418945312	-321.741455078125	2287.916015625	606.9635009765625	-302.9878540039062	2048.90234375	484.7179565429688	-597.0198974609375	2341.447509765625	557.8759155273438	-309.9967346191406	2005.406372070312	387.8341064453125	-596.5948486328125	1929.4931640625	320.4626159667969	-581.939697265625	2357.07373046875	433.1704406738281	-306.1571350097656	1771.930419921875	75.79096221923828	-572.8025512695312	2272.395263671875	438.4778137207031	-296.2213134765625	1722.025634765625	250.7457427978516	-465.4342346191406	2343.174072265625	331.3126220703125	-315.6912536621094	2265.605712890625	342.8943481445312	-306.0763854980469	1778.320190429688	230.7732543945312	-555.1508178710938	2280.8056640625	163.1793365478516	-325.5054016113281	2479.34765625	107.6935043334961	-364.8466491699219	2218.09521484375	134.761962890625	-378.4847412109375	2235.24755859375	107.3306350708008	-406.5452575683594	2221.742431640625	110.190788269043	-351.10546875	1707.0263671875	252.3374633789062	-519.9185791015625
